<!DOCTYPE svg PUBLIC "-//W3C//DTD SVG 20010904//EN" "http://www.w3.org/TR/2001/REC-SVG-20010904/DTD/svg10.dtd">
<svg version="1.0" xmlns="http://www.w3.org/2000/svg" width="512px" height="512px" viewBox="0 0 5120 5120" preserveAspectRatio="xMidYMid meet">
<g id="layer101" fill="#07ff00" stroke="none">
 <path d="M2445 4709 c-97 -48 -157 -141 -160 -247 l-1 -65 -588 -338 -588 -337 -39 28 c-106 76 -257 61 -355 -37 -53 -53 -74 -105 -74 -188 0 -113 56 -206 153 -253 l37 -18 0 -684 0 -684 -37 -19 c-98 -49 -153 -139 -153 -250 0 -116 50 -196 156 -248 58 -29 71 -31 131 -27 62 5 112 23 164 59 15 12 6 17 998 -557 l195 -112 -3 -61 c-4 -104 60 -210 155 -256 23 -12 68 -21 112 -23 63 -4 79 -1 126 22 203 100 214 379 19 493 -34 20 -63 27 -118 31 -64 4 -80 1 -126 -22 -30 -14 -61 -31 -69 -37 -12 -9 -130 55 -600 325 -322 185 -587 337 -590 338 -3 2 -3 34 0 73 l5 69 583 338 583 337 44 -34 c89 -68 213 -68 313 -1 l48 32 583 -336 583 -337 2 -69 2 -69 -232 -133 -233 -133 -73 -2 -73 -3 -309 176 c-293 167 -309 177 -328 217 -26 55 -71 83 -133 83 -42 0 -52 -5 -86 -38 -21 -21 -41 -50 -44 -65 -26 -102 83 -205 178 -169 27 10 48 0 341 -169 282 -163 314 -184 325 -214 25 -70 105 -108 175 -85 41 13 85 61 93 101 6 29 12 33 453 286 24 14 29 13 79 -19 51 -31 60 -33 140 -33 76 0 92 3 132 27 132 78 184 225 124 353 -28 58 -100 131 -146 147 l-29 10 0 289 c0 169 4 289 9 289 18 0 51 68 51 104 0 93 -101 172 -175 138 -22 -10 -56 7 -325 161 -285 164 -301 174 -322 216 -31 61 -68 86 -127 86 -123 0 -186 -148 -100 -234 38 -38 87 -53 134 -40 34 10 46 4 334 -163 249 -144 300 -177 305 -198 2 -14 16 -38 30 -53 l26 -28 0 -284 0 -284 -22 -6 c-13 -4 -37 -18 -55 -31 -17 -13 -34 -24 -38 -24 -3 0 -155 86 -338 191 -182 105 -446 257 -584 337 l-253 145 0 47 c0 110 -60 212 -154 258 l-46 23 0 684 0 684 46 23 c60 30 119 97 140 160 44 134 -28 288 -160 343 -53 22 -171 19 -221 -6z m170 -133 c92 -39 100 -184 13 -232 -13 -8 -44 -13 -69 -14 -133 -1 -176 178 -58 242 41 22 68 23 114 4z m-218 -342 c21 -14 48 -30 61 -35 l22 -9 0 -688 0 -688 -36 -13 c-20 -7 -54 -31 -76 -53 -54 -54 -81 -118 -82 -195 l-1 -62 -85 -48 c-47 -27 -311 -179 -587 -338 l-503 -288 -38 25 c-20 14 -47 28 -60 32 l-22 7 0 688 0 687 37 13 c52 19 127 100 147 157 9 26 16 73 16 105 l0 57 168 95 c92 53 354 204 582 336 228 132 416 240 417 241 1 0 19 -12 40 -26z m-1417 -599 c38 -20 60 -63 60 -119 0 -36 -6 -52 -31 -80 -97 -111 -272 1 -216 137 29 67 119 97 187 62z m1671 -994 c34 -33 39 -45 39 -82 0 -56 -16 -87 -59 -116 -131 -88 -269 91 -156 204 29 29 39 33 85 33 47 0 56 -4 91 -39z m-1686 -905 c93 -39 101 -187 13 -232 -67 -35 -139 -15 -178 49 -38 61 -14 144 51 179 41 22 68 23 114 4z m3324 -15 c63 -45 66 -147 5 -200 -85 -75 -214 -18 -214 95 0 109 119 168 209 105z m-1650 -956 c59 -51 64 -129 10 -190 -50 -57 -141 -55 -193 3 -24 27 -32 103 -16 142 20 49 55 70 116 70 42 0 59 -5 83 -25z"/>
 <path d="M3262 4049 c-20 -6 -40 -22 -52 -42 -18 -29 -20 -51 -20 -219 l0 -188 -30 0 c-30 0 -30 -1 -30 -55 0 -54 0 -55 30 -55 l30 0 0 -75 0 -75 55 0 55 0 0 75 0 75 40 0 40 0 0 55 0 55 -40 0 -40 0 0 159 c0 88 3 166 6 175 4 10 18 16 40 16 l34 0 0 55 0 55 -42 -1 c-24 0 -58 -5 -76 -10z"/>
 <path d="M3543 4045 c-62 -27 -68 -48 -71 -257 l-4 -188 -24 0 c-22 0 -24 -3 -24 -55 0 -52 1 -55 25 -55 24 0 25 -2 25 -75 l0 -75 55 0 55 0 0 75 0 75 40 0 40 0 0 55 0 55 -40 0 -40 0 0 156 c0 88 4 164 10 175 7 12 21 19 40 19 30 0 30 1 30 55 l0 55 -42 0 c-24 -1 -57 -7 -75 -15z"/>
 <path d="M3895 4048 c-11 -6 -26 -18 -32 -26 -11 -14 -13 -13 -13 6 0 20 -5 22 -55 22 l-55 0 0 -390 0 -390 55 0 55 0 0 136 0 136 31 -26 c23 -20 42 -26 75 -26 60 0 82 13 105 63 16 36 19 67 19 220 0 194 -7 227 -55 265 -30 24 -96 29 -130 10z m55 -108 c18 -18 20 -33 20 -163 0 -156 -9 -187 -55 -187 -55 0 -68 44 -63 213 2 96 6 118 22 136 24 26 50 27 76 1z"/>
 <path d="M2720 3660 l0 -390 55 0 55 0 0 136 0 136 31 -26 c43 -36 129 -37 164 -2 38 38 45 87 45 319 l0 217 -55 0 -55 0 0 -194 c0 -114 -4 -206 -11 -225 -18 -51 -85 -55 -107 -5 -8 16 -12 95 -12 224 l0 200 -55 0 -55 0 0 -390z"/>
 </g>
<g id="layer102" fill="#2846b8" stroke="none">
 <path d="M2282 4460 c0 -19 2 -27 5 -17 2 9 2 25 0 35 -3 9 -5 1 -5 -18z"/>
 <path d="M2543 4323 c9 -2 25 -2 35 0 9 3 1 5 -18 5 -19 0 -27 -2 -17 -5z"/>
 <path d="M2480 3507 l5 -692 3 684 c1 377 -1 688 -5 692 -5 5 -6 -303 -3 -684z"/>
 <path d="M3262 4049 c-20 -6 -40 -22 -52 -42 -18 -29 -20 -51 -20 -219 l0 -188 -30 0 c-30 0 -30 -1 -30 -55 0 -54 0 -55 30 -55 l30 0 0 -75 0 -75 55 0 55 0 0 75 0 75 40 0 40 0 0 55 0 55 -40 0 -40 0 0 159 c0 88 3 166 6 175 4 10 18 16 40 16 l34 0 0 55 0 55 -42 -1 c-24 0 -58 -5 -76 -10z"/>
 <path d="M3543 4045 c-62 -27 -68 -48 -71 -257 l-4 -188 -24 0 c-22 0 -24 -3 -24 -55 0 -52 1 -55 25 -55 24 0 25 -2 25 -75 l0 -75 55 0 55 0 0 75 0 75 40 0 40 0 0 55 0 55 -40 0 -40 0 0 156 c0 88 4 164 10 175 7 12 21 19 40 19 30 0 30 1 30 55 l0 55 -42 0 c-24 -1 -57 -7 -75 -15z"/>
 <path d="M3895 4048 c-11 -6 -26 -18 -32 -26 -11 -14 -13 -13 -13 6 0 20 -5 22 -55 22 l-55 0 0 -390 0 -390 55 0 55 0 0 136 0 136 31 -26 c23 -20 42 -26 75 -26 60 0 82 13 105 63 16 36 19 67 19 220 0 194 -7 227 -55 265 -30 24 -96 29 -130 10z m55 -108 c18 -18 20 -33 20 -163 0 -156 -9 -187 -55 -187 -55 0 -68 44 -63 213 2 96 6 118 22 136 24 26 50 27 76 1z"/>
 <path d="M2720 3660 l0 -390 55 0 55 0 0 136 0 136 31 -26 c43 -36 129 -37 164 -2 38 38 45 87 45 319 l0 217 -55 0 -55 0 0 -194 c0 -114 -4 -206 -11 -225 -18 -51 -85 -55 -107 -5 -8 16 -12 95 -12 224 l0 200 -55 0 -55 0 0 -390z"/>
 <path d="M1042 3520 c0 -19 2 -27 5 -17 2 9 2 25 0 35 -3 9 -5 1 -5 -18z"/>
 <path d="M835 2570 c0 -371 1 -523 2 -338 2 186 2 490 0 675 -1 186 -2 34 -2 -337z"/>
 <path d="M3383 3163 c9 -2 25 -2 35 0 9 3 1 5 -18 5 -19 0 -27 -2 -17 -5z"/>
 <path d="M2750 2745 c19 -19 36 -35 39 -35 3 0 -10 16 -29 35 -19 19 -36 35 -39 35 -3 0 10 -16 29 -35z"/>
 <path d="M4193 2703 c9 -2 25 -2 35 0 9 3 1 5 -18 5 -19 0 -27 -2 -17 -5z"/>
 <path d="M2282 2550 c0 -19 2 -27 5 -17 2 9 2 25 0 35 -3 9 -5 1 -5 -18z"/>
 <path d="M2548 2273 c12 -2 30 -2 40 0 9 3 -1 5 -23 4 -22 0 -30 -2 -17 -4z"/>
 <path d="M2720 887 c0 -2 15 -16 33 -33 l32 -29 -29 33 c-28 30 -36 37 -36 29z"/>
 <path d="M2538 793 c12 -2 30 -2 40 0 9 3 -1 5 -23 4 -22 0 -30 -2 -17 -4z"/>
 <path d="M2422 660 c0 -19 2 -27 5 -17 2 9 2 25 0 35 -3 9 -5 1 -5 -18z"/>
 <path d="M2744 468 l-29 -33 33 29 c17 17 32 31 32 33 0 8 -8 1 -36 -29z"/>
 </g>

</svg>